<?xml version="1.0" encoding="utf-8"?>
<!-- Generator: Adobe Illustrator 24.0.0, SVG Export Plug-In . SVG Version: 6.00 Build 0)  -->
<svg version="1.1" id="Layer_1" xmlns="http://www.w3.org/2000/svg" xmlns:xlink="http://www.w3.org/1999/xlink" x="0px" y="0px"
	 viewBox="0 0 171 61.5" style="enable-background:new 0 0 171 61.5;" xml:space="preserve">
<style type="text/css">
	.st0{fill:#FFFFFF;}
	.st1{fill:#333333;}
	.st2{fill:#FAA41A;}
</style>
<path class="st0" d="M8.2,48.8L19.4,13L5.8,17.7L4.4,7.5l21.1-7.3l9.3,2.9L19.4,52.3L8.2,48.8z"/>
<path class="st1" d="M39.6,0l18.8,51.9l6.1,2v7.6H36.7V54l6.5-2l-2.1-6.5H21.7L19.5,52l6.8,2.1v7.6H0V54l6.4-2L25.6,0.3L39.6,0z
	 M31.7,15.4L24.8,36h13.5L31.7,15.4z"/>
<polygon class="st2" points="19.5,51.8 26.4,54 26.4,61.5 0,61.5 0,54 6.4,51.9 19.4,13 5.8,17.7 4.4,7.5 25.6,0.3 25.6,0.2 36.7,0 
	"/>
<path class="st1" d="M90.8,54v7.6H64.4V54l6.6-2.2V10.3l-6.6-2.6L84.5,0h6.6c7.3,0,12.9,1.5,16.8,4.5s5.9,7.4,5.9,13.3
	c0,7.7-3.3,13.2-9.9,16.5c1.5,1.7,2.7,3.6,3.7,5.7l5.8,12l5.9,2v7.6h-16.2l-7.3-16.2c-1.6-3.5-2.8-5.7-3.7-6.6s-2.5-1.4-4.7-1.4
	h-3.1v14.4L90.8,54z M84.5,10.3v17.9h5c3.4,0,6.1-0.8,8-2.4c2-1.7,3-4.2,2.9-6.8c0.1-2.3-0.7-4.6-2.4-6.3c-1.7-1.6-4-2.5-6.4-2.4
	C91.6,10.3,84.5,10.3,84.5,10.3z"/>
<path class="st1" d="M70.9,51.5V14l-13.4,8.5l-5-9.2L73.3,0h11.2v51.5H70.9z"/>
<polygon class="st2" points="52.5,13.3 57.6,22.5 70.9,14 70.9,51.8 64.4,54 64.4,61.5 90.8,61.5 90.8,54 84.5,51.5 84.5,0 73.3,0 
	"/>
<path class="st2" d="M168.1,52.4l-8.5,9.1l-17.3-12l-1.2-4l1-2.5c9.4-8.3,6.2-24,6.2-24c0.1-11.4-17.7-8.7-17.7-8.7l-2.2,8.3h-8
	l-0.6-15.2c9.6-4.1,23.4-3.3,23.4-3.3C163,0,162.1,16.9,162.1,16.9c0,10.8-8.1,18.9-8.1,18.9l-16.1,15.3l14.5,0.7l6.8,2.1l5.5-5.9
	L168.1,52.4z"/>
<path class="st1" d="M171,0.1v18.5h-8.1l-2.2-8.3h-8.3v41.5l6.8,2.1l0.4,7.7h-26.7v-7.9h-0.5l6.6-3.5V34.4c0,0,6.7-5.5,9-13.5
	c0,0,2.5-5.6-4.8-9.6c-4-1.3-8.3-1.7-12.5-1.1l-2.2,8.3h-8l-0.6-15.1c0,0,5.7-2.8,17.9-3.3C137.8,0.1,171,0.1,171,0.1z"/>
<path class="st2" d="M139,50.2"/>
<polygon class="st1" points="133,53.7 133,61.6 131.8,61.6 131.8,54 132.4,53.7 "/>
<polygon class="st1" points="132.4,53.7 131.8,54 131.8,61.6 131.7,61.6 131.7,53.7 "/>
<path class="st2" d="M152.5,37.5l-13,12.3l0,0l-0.5,0.4l-0.1,0.1l-7.2,3.8v7.5h-12.4v-7.5l19.6-19.6l1.7-1.6c3-3.2,5.3-6.8,7-10.8
	c3.1-6.9-4.3-10.6-4.3-10.6c-5.2-2-12.6-1.1-12.6-1.1l-2.2,8.3h-8l-0.6-15.3c7.6-3.3,20.5-3.3,20.5-3.3c16.7-0.7,20,8.5,20,8.5
	C167.8,24.3,152.5,37.5,152.5,37.5z"/>
</svg>
